<svg height="512" viewBox="0 0 64 64" width="512" xmlns="http://www.w3.org/2000/svg"><path d="M62.933 53.333h-44.8c-.315 0-.613-.139-.816-.38L.251 32.687a1.067 1.067 0 010-1.374l17.067-20.267c.203-.241.501-.38.816-.38h44.8c.589 0 1.067.478 1.067 1.067v40.533a1.069 1.069 0 01-1.068 1.067zM18.629 51.2h43.237V12.8H18.629L2.461 32z"/><path d="M46.933 41.6c-.273 0-.546-.105-.754-.313L29.113 24.221a1.065 1.065 0 111.508-1.508L47.688 39.78a1.065 1.065 0 01-.755 1.82z"/><path d="M29.867 41.6a1.065 1.065 0 01-.754-1.821L46.18 22.712a1.065 1.065 0 111.508 1.508L30.621 41.287a1.064 1.064 0 01-.754.313z"/></svg>