<svg width="92" height="128" viewBox="0 0 92 128" fill="none" xmlns="http://www.w3.org/2000/svg">
<path d="M51.3992 54C64.5992 54.72 74.6192 58.32 81.4592 64.8C88.4192 71.16 91.8992 79.5 91.8992 89.82C91.8992 97.02 90.1592 103.44 86.6792 109.08C83.1992 114.6 78.0392 118.98 71.1992 122.22C64.3592 125.46 56.0192 127.08 46.1792 127.08C37.0592 127.08 28.4192 125.64 20.2592 122.76C12.2192 119.76 5.73922 115.8 0.819219 110.88L7.11922 100.62C11.3192 104.94 16.8992 108.48 23.8592 111.24C30.8192 113.88 38.2592 115.2 46.1792 115.2C56.4992 115.2 64.4792 112.98 70.1192 108.54C75.7592 103.98 78.5792 97.74 78.5792 89.82C78.5792 82.02 75.7592 75.9 70.1192 71.46C64.4792 67.02 55.9592 64.8 44.5592 64.8H35.5592V55.26L70.4792 11.52H6.03922V-8.58307e-06H87.0392V9.17999L51.3992 54Z" fill="url(#paint0_linear)"/>
<defs>
<linearGradient id="paint0_linear" x1="50" y1="-29" x2="50" y2="151" gradientUnits="userSpaceOnUse">
<stop stop-color="#FFCF26"/>
<stop offset="1" stop-color="#936100" stop-opacity="0.6"/>
</linearGradient>
</defs>
</svg>
