<svg xmlns="http://www.w3.org/2000/svg" width="1142" height="401" fill="none"><g filter="url(#filter0_d)"><path d="M97.165 131.923c-1.717-9.277 5.455-17.816 14.889-17.728l909.576 8.488c8.23.077 14.86 6.77 14.86 14.999v166.837c0 8.284-6.71 15-15 15H144.349a15 15 0 01-14.75-12.272L97.165 131.923z" fill="#fff"/></g><g filter="url(#filter1_d)"><rect x="93.853" y="93.386" width="954.193" height="214.005" rx="7" fill="#fff"/></g><path d="M1011.21 72.637a4.875 4.875 0 017.35 0 4.876 4.876 0 006.35.873 4.877 4.877 0 017.08 1.984 4.88 4.88 0 005.88 2.554c2.82-.894 5.78.906 6.29 3.82a4.869 4.869 0 004.97 4.047 4.879 4.879 0 015.02 5.374 4.878 4.878 0 003.7 5.238c2.87.7 4.46 3.777 3.38 6.529a4.867 4.867 0 002.15 6.041c2.57 1.45 3.28 4.842 1.49 7.199a4.886 4.886 0 00.44 6.397c2.09 2.091 1.85 5.548-.5 7.336a4.886 4.886 0 00-1.31 6.277 4.879 4.879 0 01-2.46 6.929 4.872 4.872 0 00-2.95 5.692 4.88 4.88 0 01-4.24 6.008 4.89 4.89 0 00-4.38 4.685 4.873 4.873 0 01-5.7 4.641 4.883 4.883 0 00-5.48 3.331c-.89 2.819-4.07 4.199-6.74 2.93a4.888 4.888 0 00-6.18 1.729 4.874 4.874 0 01-7.28 1.002 4.875 4.875 0 00-6.41 0c-2.23 1.943-5.66 1.471-7.29-1.002a4.872 4.872 0 00-6.17-1.729 4.88 4.88 0 01-6.745-2.93 4.878 4.878 0 00-5.478-3.331 4.88 4.88 0 01-5.704-4.641 4.879 4.879 0 00-4.376-4.685 4.879 4.879 0 01-4.24-6.008 4.879 4.879 0 00-2.95-5.692 4.88 4.88 0 01-2.463-6.929 4.878 4.878 0 00-1.304-6.277 4.88 4.88 0 01-.502-7.336 4.88 4.88 0 00.438-6.397 4.878 4.878 0 011.496-7.199 4.88 4.88 0 002.147-6.041 4.879 4.879 0 013.383-6.53 4.878 4.878 0 003.697-5.237 4.879 4.879 0 015.019-5.374 4.878 4.878 0 004.973-4.046 4.88 4.88 0 016.283-3.821 4.88 4.88 0 005.881-2.554 4.882 4.882 0 017.085-1.984 4.877 4.877 0 006.35-.873z" fill="#0070F3"/><path d="M1002.74 121.929h-5.362l-3.888-5.472-3.924 5.472h-5.364l6.588-9.18-6.3-8.82h5.364l3.636 5.076 3.636-5.076h5.324l-6.296 8.784 6.586 9.216zm7.22-25.2h4.32v25.2h-4.97v-19.944l-4.75 1.332-1.23-4.248 6.63-2.34zm-19.302 37.2h-1.232l-3.5-3.374v3.374h-.924v-7h.924v3.094l3.332-3.094h1.26l-3.612 3.36 3.752 3.64zm6.585-7h.924v7h-.924v-1.372c-.644 1.026-1.587 1.54-2.828 1.54a3.493 3.493 0 01-2.562-1.064c-.7-.71-1.05-1.578-1.05-2.604 0-1.027.35-1.895 1.05-2.604a3.489 3.489 0 012.562-1.064c1.241 0 2.184.513 2.828 1.54v-1.372zm-4.718 5.474c.532.532 1.185.798 1.96.798.775 0 1.428-.266 1.96-.798.532-.542.798-1.2.798-1.974 0-.775-.266-1.428-.798-1.96-.532-.542-1.185-.812-1.96-.812-.775 0-1.428.27-1.96.812-.532.532-.798 1.185-.798 1.96 0 .774.266 1.432.798 1.974zm11.355-5.642c.99 0 1.84.354 2.54 1.064.71.709 1.07 1.577 1.07 2.604 0 1.026-.36 1.894-1.07 2.604a3.444 3.444 0 01-2.54 1.064c-1.25 0-2.19-.514-2.83-1.54v4.172h-.93v-9.8h.93v1.372c.64-1.027 1.58-1.54 2.83-1.54zm-2.03 5.642c.53.532 1.18.798 1.96.798.77 0 1.42-.266 1.96-.798.53-.542.79-1.2.79-1.974 0-.775-.26-1.428-.79-1.96a2.659 2.659 0 00-1.96-.812c-.78 0-1.43.27-1.96.812-.54.532-.8 1.185-.8 1.96 0 .774.26 1.432.8 1.974zm11.94-5.474v.896h-2.48v6.104h-.92v-6.104h-2.48v-.896h5.88zm4.88-.168c1 0 1.85.354 2.55 1.064.71.709 1.06 1.577 1.06 2.604 0 1.026-.35 1.894-1.06 2.604a3.45 3.45 0 01-2.55 1.064c-1.24 0-2.19-.514-2.83-1.54v4.172h-.92v-9.8h.92v1.372c.64-1.027 1.59-1.54 2.83-1.54zm-2.03 5.642c.53.532 1.18.798 1.96.798.77 0 1.43-.266 1.96-.798.53-.542.8-1.2.8-1.974 0-.775-.27-1.428-.8-1.96-.53-.542-1.19-.812-1.96-.812-.78 0-1.43.27-1.96.812-.53.532-.8 1.185-.8 1.96 0 .774.27 1.432.8 1.974zm12.27-5.474h.79v7h-.93v-5.39l-4.17 5.39h-.78v-7h.92v5.39l4.17-5.39zm8.62 6.104h.98v2.772h-.92v-1.876h-5.72v1.876h-.92v-2.772h.85c.48-.626.72-1.508.72-2.646v-3.458h5.01v6.104zm-4.61 0h3.69v-5.208h-3.17v2.562c0 1.073-.17 1.955-.52 2.646zm15.16.896h-1.12l-2.85-3.374v3.374h-.93v-3.374l-2.85 3.374h-1.12l3.13-3.64-2.99-3.36h1.12l2.71 3.108v-3.108h.93v3.108l2.71-3.108h1.12l-2.99 3.36 3.13 3.64zm-58.626 7.402c.766.28 1.148.826 1.148 1.638 0 .569-.191 1.04-.574 1.414-.373.364-.914.546-1.624.546h-3.402v-7h3.122c.682 0 1.209.177 1.582.532.374.345.56.793.56 1.344 0 .7-.27 1.208-.812 1.526zm-1.33-2.506h-2.198v2.128h2.198c.812 0 1.218-.364 1.218-1.092 0-.327-.107-.579-.322-.756-.205-.187-.504-.28-.896-.28zm.28 5.208c.411 0 .724-.098.938-.294.224-.196.336-.472.336-.826 0-.327-.112-.584-.336-.77-.214-.196-.527-.294-.938-.294h-2.478v2.184h2.478zm12.976-6.104v7h-.92v-6.104h-4.034v6.104h-.924v-7h5.878zm7.82 6.118c-.71.7-1.57 1.05-2.6 1.05s-1.9-.35-2.62-1.05c-.71-.71-1.06-1.582-1.06-2.618 0-1.036.35-1.904 1.06-2.604.72-.71 1.59-1.064 2.62-1.064s1.89.354 2.6 1.064c.72.7 1.08 1.568 1.08 2.604s-.36 1.908-1.08 2.618zm-4.56-.644c.53.532 1.18.798 1.96.798.77 0 1.43-.266 1.96-.798.53-.542.8-1.2.8-1.974 0-.775-.27-1.428-.8-1.96-.53-.542-1.19-.812-1.96-.812-.78 0-1.43.27-1.96.812-.53.532-.8 1.185-.8 1.96 0 .774.27 1.432.8 1.974zm12.79.63h.98v2.772h-.92v-1.876h-5.71v1.876h-.93v-2.772h.86c.47-.626.71-1.508.71-2.646v-3.458h5.01v6.104zm-4.6 0h3.68v-5.208h-3.16v2.562c0 1.073-.18 1.955-.52 2.646zm12.73-6.104h.92v7h-.92v-1.372c-.65 1.026-1.59 1.54-2.83 1.54-1 0-1.85-.355-2.56-1.064-.7-.71-1.05-1.578-1.05-2.604 0-1.027.35-1.895 1.05-2.604.71-.71 1.56-1.064 2.56-1.064 1.24 0 2.18.513 2.83 1.54v-1.372zm-4.72 5.474c.53.532 1.18.798 1.96.798.77 0 1.43-.266 1.96-.798.53-.542.8-1.2.8-1.974 0-.775-.27-1.428-.8-1.96-.53-.542-1.19-.812-1.96-.812-.78 0-1.43.27-1.96.812-.53.532-.8 1.185-.8 1.96 0 .774.27 1.432.8 1.974zm11.35-5.642c1 0 1.85.354 2.55 1.064.71.709 1.06 1.577 1.06 2.604 0 1.026-.35 1.894-1.06 2.604a3.45 3.45 0 01-2.55 1.064c-1.24 0-2.18-.514-2.83-1.54v4.172h-.92v-9.8h.92v1.372c.65-1.027 1.59-1.54 2.83-1.54zm-2.03 5.642c.53.532 1.19.798 1.96.798s1.43-.266 1.96-.798c.53-.542.8-1.2.8-1.974 0-.775-.27-1.428-.8-1.96-.53-.542-1.19-.812-1.96-.812s-1.43.27-1.96.812c-.53.532-.8 1.185-.8 1.96 0 .774.27 1.432.8 1.974zm13.04.644c-.7.7-1.57 1.05-2.6 1.05s-1.9-.35-2.62-1.05c-.71-.71-1.06-1.582-1.06-2.618 0-1.036.35-1.904 1.06-2.604.72-.71 1.59-1.064 2.62-1.064s1.9.354 2.6 1.064c.72.7 1.08 1.568 1.08 2.604s-.36 1.908-1.08 2.618zm-4.56-.644c.53.532 1.19.798 1.96.798.78 0 1.43-.266 1.96-.798.53-.542.8-1.2.8-1.974 0-.775-.27-1.428-.8-1.96-.53-.542-1.18-.812-1.96-.812-.77 0-1.43.27-1.96.812-.53.532-.8 1.185-.8 1.96 0 .774.27 1.432.8 1.974zm12.84 1.526h-1.23l-3.5-3.374v3.374h-.92v-7h.92v3.094l3.33-3.094h1.26l-3.61 3.36 3.75 3.64z" fill="#fff"/><defs><filter id="filter0_d" x="37.91" y="55.194" width="1057.58" height="323.325" filterUnits="userSpaceOnUse" color-interpolation-filters="sRGB"><feFlood flood-opacity="0" result="BackgroundImageFix"/><feColorMatrix in="SourceAlpha" values="0 0 0 0 0 0 0 0 0 0 0 0 0 0 0 0 0 0 127 0"/><feOffset/><feGaussianBlur stdDeviation="29.5"/><feColorMatrix values="0 0 0 0 0 0 0 0 0 0.438917 0 0 0 0 0.954167 0 0 0 0.2 0"/><feBlend in2="BackgroundImageFix" result="effect1_dropShadow"/><feBlend in="SourceGraphic" in2="effect1_dropShadow" result="shape"/></filter><filter id="filter1_d" x=".854" y=".386" width="1140.19" height="400.005" filterUnits="userSpaceOnUse" color-interpolation-filters="sRGB"><feFlood flood-opacity="0" result="BackgroundImageFix"/><feColorMatrix in="SourceAlpha" values="0 0 0 0 0 0 0 0 0 0 0 0 0 0 0 0 0 0 127 0"/><feOffset/><feGaussianBlur stdDeviation="46.5"/><feColorMatrix values="0 0 0 0 0 0 0 0 0 0.438917 0 0 0 0 0.954167 0 0 0 0.15 0"/><feBlend in2="BackgroundImageFix" result="effect1_dropShadow"/><feBlend in="SourceGraphic" in2="effect1_dropShadow" result="shape"/></filter></defs></svg>