<svg width="144" height="43" fill="none" xmlns="http://www.w3.org/2000/svg"><path d="M1.598 11.414v9.343h3.581V13.15c.03-1.13.69-2.674 2.398-2.674 1.408 0 2.18.966 2.18 2.427v4.49c0 2.397 1.072 3.498 3.116 3.498 1.02 0 1.597-.194 1.597-.194v-2.704c-.855 0-1.102-.412-1.102-1.184v-4.242c0-2.892-1.35-5.26-4.713-5.26-2.45 0-3.552 1.154-3.94 2.285v-.03c0-1.295-.99-2.232-2.646-2.232-1.02 0-1.573.195-1.573.195v2.698c.854.006 1.102.447 1.102 1.19zm15.186-3.941v9.92c0 2.398 1.072 3.5 3.117 3.5 1.019 0 1.596-.195 1.596-.195v-2.704c-.854 0-1.102-.412-1.102-1.184V7.473h-3.61zm1.813-2.398c1.267 0 2.286-.884 2.286-2.15 0-1.267-1.02-2.203-2.286-2.203-1.267 0-2.262.936-2.262 2.203 0 1.266.995 2.15 2.262 2.15zm9.981 8.601c-3.694 0-5.208 1.349-5.208 3.693 0 2.068 1.573 3.553 4.33 3.553 2.592 0 3.723-1.243 4.218-2.091v.029c0 .247.247 2.038 2.704 2.038 1.02 0 1.573-.224 1.573-.224V18c-.854 0-1.102-.442-1.102-1.214V12.21c0-3.087-1.655-4.907-5.514-4.907-3.582 0-5.431 1.573-5.431 3.805 0 1.049.3 1.49.3 1.49h3.223s-.218-.276-.218-.906c0-1.02.718-1.656 2.014-1.656 1.296 0 2.039.607 2.039 2.038v1.597h-2.928v.006zm2.916 2.421s-.578 2.097-2.81 2.097c-.99 0-1.68-.471-1.68-1.296 0-.825.637-1.325 1.904-1.325H31.5v.524h-.006zm6.038 7.253c0 2.727 2.068 4.217 6.81 4.217 5.237 0 6.669-2.203 6.669-4.494 0-2.81-2.345-4.077-5.35-4.077h-3.445c-.855 0-1.408-.247-1.408-.907 0-.636.441-.907 1.296-.907.47.165 1.266.412 2.203.412 3.14 0 5.98-1.844 5.98-5.125a4.51 4.51 0 00-1.986-3.806c1.431-.112 3.087-1.02 3.087-3.305l-2.616-.33c0 2.18-2.12 2.48-2.869 2.48-.276-.029-.907-.194-1.655-.194-3.281 0-5.98 1.873-5.98 5.155 0 1.655.884 2.757 1.544 3.364-.966.359-1.738 1.13-1.738 2.509 0 1.102.719 1.655 1.102 2.038-.542.407-1.644 1.202-1.644 2.97zm6.751-13.232c1.573 0 2.675.937 2.675 2.345 0 1.408-1.102 2.368-2.698 2.368-1.573 0-2.645-.966-2.645-2.368-.006-1.432 1.095-2.345 2.668-2.345zM42.41 21.53h3.364c1.296 0 2.014.471 2.014 1.514 0 1.214-.883 1.762-3.664 1.762-2.674 0-3.47-.578-3.47-1.68-.011-1.072.595-1.596 1.756-1.596zm15.07-7.854c-3.694 0-5.207 1.349-5.207 3.693 0 2.068 1.572 3.553 4.33 3.553 2.591 0 3.722-1.243 4.217-2.091v.029c0 .247.248 2.038 2.704 2.038 1.02 0 1.573-.224 1.573-.224V18c-.854 0-1.101-.442-1.101-1.214V12.21c0-3.087-1.656-4.907-5.514-4.907-3.582 0-5.432 1.573-5.432 3.805 0 1.049.3 1.49.3 1.49h3.223s-.218-.276-.218-.906c0-1.02.719-1.656 2.015-1.656 1.296 0 2.038.607 2.038 2.038v1.597H57.48v.006zm2.922 2.421s-.577 2.097-2.81 2.097c-.99 0-1.679-.471-1.679-1.296 0-.825.636-1.325 1.903-1.325h2.592v.524h-.006zm7.551-4.683v9.343h3.582V13.15c.053-1.072.69-2.562 2.368-2.562 1.155 0 1.709.412 1.709.412l1.46-3.17s-.718-.523-2.097-.523c-2.533 0-3.581 1.266-3.94 2.397v-.082c0-.607-.39-2.286-2.705-2.286-1.019 0-1.49.194-1.49.194v2.699c.866 0 1.113.441 1.113 1.184zm14.934 2.262c-3.693 0-5.207 1.349-5.207 3.693 0 2.068 1.573 3.553 4.33 3.553 2.592 0 3.723-1.243 4.218-2.091v.029c0 .247.247 2.038 2.704 2.038 1.019 0 1.572-.224 1.572-.224V18c-.854 0-1.101-.442-1.101-1.214V12.21c0-3.087-1.656-4.907-5.514-4.907-3.582 0-5.432 1.573-5.432 3.805 0 1.049.3 1.49.3 1.49h3.223s-.218-.276-.218-.906c0-1.02.719-1.656 2.015-1.656 1.296 0 2.038.607 2.038 2.038v1.597h-2.928v.006zm2.922 2.421s-.577 2.097-2.81 2.097c-.99 0-1.679-.471-1.679-1.296 0-.825.637-1.325 1.903-1.325h2.592v.524h-.006zm27.192 4.713c.301 0 .495-.053.495-.053v-.854c-.883 0-1.16-.495-1.16-1.461V.75h-1.049v17.773c.006 1.656.748 2.286 1.714 2.286zm8.101.112c2.45 0 4.053-1.46 4.742-3.198v.99c0 1.543.742 2.096 1.626 2.096.359 0 .524-.053.524-.053v-.854c-.907 0-1.16-.524-1.16-1.49V7.473h-1.072v8.047c0 1.626-1.544 4.49-4.413 4.49-2.009 0-3.417-.99-3.417-3.724V7.473h-1.048v8.902c0 3.251 1.655 4.547 4.218 4.547z" fill="#000"/><path d="M135.624 20.015c-3.199 0-4.519-2.398-4.519-2.398l-.689.66s1.325 2.645 5.237 2.645c3.14 0 4.742-1.35 4.742-3.582 0-5.178-8.518-1.761-8.518-6.203 0-1.709 1.214-2.922 3.611-2.922 2.645 0 3.641 1.378 3.641 2.757 0 .719-.165 1.184-.165 1.184h.966s.194-.495.194-1.243c0-1.685-1.101-3.611-4.63-3.611-3.334 0-4.63 1.844-4.63 3.829 0 5.349 8.518 2.18 8.518 6.256-.012 1.632-1.361 2.628-3.758 2.628z" fill="#020202"/><path d="M39.388 31.98c-4.3.336-8.29-.124-12.425-1.567C18.41 27.432 9.71 23.515.147 22.996c5.432.424 11.67 3.464 23.989 11.417 7.293 4.707 15.6 6.12 25.284 3.458-2.38-1.36-4.33-2.521-6.056-3.558a182.952 182.952 0 00-3.976-2.333z" fill="#74CAE6"/><path d="M97.739 25.77v-1.638c.53.024 1.048.06 1.56.095a88.203 88.203 0 011.868-.36c-1.101-.17-2.25-.335-3.428-.489v-4.972s.99 2.51 4.436 2.51c2.892 0 5.372-1.956 5.372-6.916 0-4.848-2.48-6.698-5.349-6.698-3.416 0-4.465 2.727-4.518 2.84V9.37c0-1.379-.801-1.956-1.626-1.956-.33 0-.524.053-.524.053v.854c.907 0 1.16.554 1.16 1.408v13.514c-10.568-1.308-23.688-1.69-35.17 2.663-4.689 1.779-8.812 3.222-12.565 4.265l.3.106c1.72.607 3.5 1.237 5.232 1.82a30.09 30.09 0 005.838 1.32c.283-.148.56-.283.842-.436 13.933-7.64 26.01-9.22 35.523-8.896v1.944a51.41 51.41 0 00-6.209 1.986c-15.947 6.28-25.655 8.8-36.371 5.213-9.243-3.093-18.657-7.21-28.978-7.487 12.518 2.604 13.425 4.63 26.05 11.74 11.022 6.21 23.381 6.84 39.022-2.003 24.112-13.625 43.099-9.726 53.337-8.04v-.272c-8.977-1.473-28.282-5.508-45.802-1.396zm0-14.091s.936-3.47 4.271-3.47c2.368 0 4.518 1.655 4.518 5.785 0 4.106-1.926 6.009-4.495 6.009-3.446 0-4.27-3.058-4.3-3.17V11.68h.006z" fill="#74CAE6"/><path d="M97.687 26.021V18.42s.99 2.51 4.436 2.51c2.892 0 5.372-1.956 5.372-6.916 0-4.849-2.48-6.699-5.349-6.699-3.417 0-4.465 2.728-4.518 2.84v-.772c0-1.378-.801-1.956-1.626-1.956-.33 0-.524.053-.524.053v.855c.907 0 1.16.553 1.16 1.408V26.04c.002 0 1.049-.018.99 0h-.989.989l.059-.018zm0-14.33s.936-3.47 4.271-3.47c2.368 0 4.518 1.656 4.518 5.786 0 4.106-1.926 6.008-4.495 6.008-3.446 0-4.27-3.057-4.3-3.169v-5.155h.006z" fill="#000"/><path d="M97.843 25.787c-2.101.535-5.226 1.442-7.25 2.242-15.931 6.273-25.63 8.792-36.334 5.208-9.233-3.09-18.637-7.203-28.948-7.48 12.506 2.601 13.412 4.626 26.023 11.729 11.011 6.203 23.357 6.832 38.982-2 24.087-13.613 43.053-9.717 53.281-8.034v-.27c-8.968-1.472-28.253-5.503-45.755-1.395z" fill="#3876B9"/></svg>