<svg width="10" height="11" viewBox="0 0 10 11" fill="none" xmlns="http://www.w3.org/2000/svg">
<g clip-path="url(#clip0)">
<path d="M5.0022 3.02939C3.58255 3.02939 2.43746 4.13154 2.43746 5.49795C2.43746 6.86435 3.58255 7.9665 5.0022 7.9665C6.42184 7.9665 7.56693 6.86435 7.56693 5.49795C7.56693 4.13154 6.42184 3.02939 5.0022 3.02939ZM5.0022 7.10283C4.08479 7.10283 3.33479 6.3831 3.33479 5.49795C3.33479 4.61279 4.08255 3.89307 5.0022 3.89307C5.92184 3.89307 6.66961 4.61279 6.66961 5.49795C6.66961 6.3831 5.91961 7.10283 5.0022 7.10283ZM8.27005 2.92842C8.27005 3.24853 8.0022 3.5042 7.67184 3.5042C7.33925 3.5042 7.07363 3.24639 7.07363 2.92842C7.07363 2.61045 7.34148 2.35264 7.67184 2.35264C8.0022 2.35264 8.27005 2.61045 8.27005 2.92842ZM9.96871 3.51279C9.93077 2.7415 9.74773 2.0583 9.16068 1.49541C8.57586 0.932519 7.86604 0.756348 7.0647 0.717676C6.2388 0.672559 3.76336 0.672559 2.93746 0.717676C2.13836 0.754199 1.42854 0.930371 0.841483 1.49326C0.254429 2.05615 0.0736258 2.73936 0.0334473 3.51064C-0.0134277 4.30557 -0.0134277 6.68818 0.0334473 7.4831C0.0713937 8.25439 0.254429 8.9376 0.841483 9.50049C1.42854 10.0634 2.13613 10.2395 2.93746 10.2782C3.76336 10.3233 6.2388 10.3233 7.0647 10.2782C7.86604 10.2417 8.57586 10.0655 9.16068 9.50049C9.7455 8.9376 9.92854 8.25439 9.96871 7.4831C10.0156 6.68818 10.0156 4.30771 9.96871 3.51279ZM8.90175 8.33603C8.72764 8.75713 8.39059 9.08154 7.95086 9.25127C7.29238 9.50264 5.72988 9.44463 5.0022 9.44463C4.27452 9.44463 2.70979 9.50049 2.05354 9.25127C1.61604 9.08369 1.27898 8.75928 1.10264 8.33603C0.841483 7.70225 0.901751 6.19834 0.901751 5.49795C0.901751 4.79756 0.843715 3.2915 1.10264 2.65986C1.27675 2.23877 1.6138 1.91436 2.05354 1.74463C2.71202 1.49326 4.27452 1.55127 5.0022 1.55127C5.72988 1.55127 7.29461 1.49541 7.95086 1.74463C8.38836 1.91221 8.72541 2.23662 8.90175 2.65986C9.16291 3.29365 9.10264 4.79756 9.10264 5.49795C9.10264 6.19834 9.16291 7.70439 8.90175 8.33603Z" fill="white"/>
</g>
<defs>
<clipPath id="clip0">
<rect width="10" height="11" fill="white"/>
</clipPath>
</defs>
</svg>
