<svg width="15" height="17" viewBox="0 0 15 17" fill="none" xmlns="http://www.w3.org/2000/svg">
<g clip-path="url(#clip0)">
<path d="M7.60131 4.72659C5.51639 4.72659 3.83468 6.40987 3.83468 8.49675C3.83468 10.5836 5.51639 12.2669 7.60131 12.2669C9.68624 12.2669 11.368 10.5836 11.368 8.49675C11.368 6.40987 9.68624 4.72659 7.60131 4.72659ZM7.60131 10.9478C6.25398 10.9478 5.15251 9.84862 5.15251 8.49675C5.15251 7.14487 6.2507 6.04565 7.60131 6.04565C8.95193 6.04565 10.0501 7.14487 10.0501 8.49675C10.0501 9.84862 8.94865 10.9478 7.60131 10.9478ZM12.4006 4.57237C12.4006 5.06128 12.0072 5.45175 11.522 5.45175C11.0336 5.45175 10.6435 5.058 10.6435 4.57237C10.6435 4.08675 11.0369 3.693 11.522 3.693C12.0072 3.693 12.4006 4.08675 12.4006 4.57237ZM14.8953 5.46487C14.8395 4.2869 14.5707 3.24347 13.7086 2.38378C12.8497 1.52409 11.8072 1.25503 10.6304 1.19597C9.41743 1.12706 5.78192 1.12706 4.56899 1.19597C3.3954 1.25175 2.35294 1.52081 1.49078 2.3805C0.628613 3.24019 0.36308 4.28362 0.304073 5.46159C0.235231 6.67565 0.235231 10.3146 0.304073 11.5286C0.359802 12.7066 0.628613 13.75 1.49078 14.6097C2.35294 15.4694 3.39212 15.7385 4.56899 15.7975C5.78192 15.8664 9.41743 15.8664 10.6304 15.7975C11.8072 15.7417 12.8497 15.4727 13.7086 14.6097C14.5675 13.75 14.8363 12.7066 14.8953 11.5286C14.9641 10.3146 14.9641 6.67894 14.8953 5.46487ZM13.3283 12.8313C13.0726 13.4744 12.5776 13.9699 11.9318 14.2291C10.9647 14.613 8.67 14.5244 7.60131 14.5244C6.53263 14.5244 4.23462 14.6097 3.27083 14.2291C2.62831 13.9732 2.1333 13.4777 1.87432 12.8313C1.49078 11.8633 1.57929 9.56643 1.57929 8.49675C1.57929 7.42706 1.49405 5.1269 1.87432 4.16222C2.13002 3.51909 2.62503 3.02362 3.27083 2.7644C4.2379 2.3805 6.53263 2.46909 7.60131 2.46909C8.67 2.46909 10.968 2.38378 11.9318 2.7644C12.5743 3.02034 13.0693 3.51581 13.3283 4.16222C13.7119 5.13019 13.6233 7.42706 13.6233 8.49675C13.6233 9.56643 13.7119 11.8666 13.3283 12.8313Z" fill="#E90255"/>
</g>
<defs>
<clipPath id="clip0">
<rect x="0.254883" y="0.0999756" width="14.6863" height="16.8" fill="white"/>
</clipPath>
</defs>
</svg>
