<svg width="23" height="26" viewBox="0 0 23 26" fill="none" xmlns="http://www.w3.org/2000/svg">
<g clip-path="url(#clip0)">
<path d="M11.5053 7.16025C8.24014 7.16025 5.60644 9.76533 5.60644 12.995C5.60644 16.2247 8.24014 18.8298 11.5053 18.8298C14.7705 18.8298 17.4042 16.2247 17.4042 12.995C17.4042 9.76533 14.7705 7.16025 11.5053 7.16025ZM11.5053 16.7884C9.39528 16.7884 7.67028 15.0872 7.67028 12.995C7.67028 10.9028 9.39014 9.20166 11.5053 9.20166C13.6205 9.20166 15.3404 10.9028 15.3404 12.995C15.3404 15.0872 13.6154 16.7884 11.5053 16.7884ZM19.0214 6.92158C19.0214 7.67822 18.4053 8.28252 17.6455 8.28252C16.8805 8.28252 16.2696 7.67314 16.2696 6.92158C16.2696 6.17002 16.8857 5.56064 17.6455 5.56064C18.4053 5.56064 19.0214 6.17002 19.0214 6.92158ZM22.9283 8.30283C22.841 6.47979 22.42 4.86494 21.0698 3.53447C19.7247 2.204 18.0921 1.7876 16.2491 1.69619C14.3495 1.58955 8.65599 1.58955 6.75644 1.69619C4.91849 1.78252 3.2859 2.19893 1.93568 3.52939C0.585456 4.85986 0.169608 6.47471 0.0771972 8.29775C-0.0306152 10.1767 -0.0306152 15.8083 0.0771972 17.6872C0.164474 19.5103 0.585456 21.1251 1.93568 22.4556C3.2859 23.786 4.91336 24.2024 6.75644 24.2938C8.65599 24.4005 14.3495 24.4005 16.2491 24.2938C18.0921 24.2075 19.7247 23.7911 21.0698 22.4556C22.4149 21.1251 22.8359 19.5103 22.9283 17.6872C23.0361 15.8083 23.0361 10.1817 22.9283 8.30283ZM20.4743 19.7032C20.0738 20.6985 19.2986 21.4653 18.2872 21.8665C16.7727 22.4606 13.179 22.3235 11.5053 22.3235C9.83166 22.3235 6.23278 22.4556 4.7234 21.8665C3.71715 21.4704 2.94193 20.7036 2.53635 19.7032C1.93568 18.2052 2.0743 14.6505 2.0743 12.995C2.0743 11.3396 1.94081 7.77979 2.53635 6.28682C2.93679 5.2915 3.71202 4.52471 4.7234 4.12353C6.23791 3.52939 9.83166 3.6665 11.5053 3.6665C13.179 3.6665 16.7779 3.53447 18.2872 4.12353C19.2935 4.51963 20.0687 5.28643 20.4743 6.28682C21.075 7.78486 20.9363 11.3396 20.9363 12.995C20.9363 14.6505 21.075 18.2103 20.4743 19.7032Z" fill="#E90255"/>
</g>
<defs>
<clipPath id="clip0">
<rect width="23" height="26" fill="white"/>
</clipPath>
</defs>
</svg>
