<svg width="15" height="18" viewBox="0 0 15 18" fill="none" xmlns="http://www.w3.org/2000/svg">
<g clip-path="url(#clip0)">
<path d="M7.76563 5.35028C5.74152 5.35028 4.10886 6.97845 4.10886 8.99701C4.10886 11.0156 5.74152 12.6437 7.76563 12.6437C9.78975 12.6437 11.4224 11.0156 11.4224 8.99701C11.4224 6.97845 9.78975 5.35028 7.76563 5.35028ZM7.76563 11.3679C6.45759 11.3679 5.38825 10.3046 5.38825 8.99701C5.38825 7.68939 6.45441 6.62616 7.76563 6.62616C9.07685 6.62616 10.143 7.68939 10.143 8.99701C10.143 10.3046 9.07367 11.3679 7.76563 11.3679ZM12.4249 5.20111C12.4249 5.67401 12.043 6.0517 11.572 6.0517C11.0978 6.0517 10.7191 5.67084 10.7191 5.20111C10.7191 4.73138 11.101 4.35052 11.572 4.35052C12.043 4.35052 12.4249 4.73138 12.4249 5.20111ZM14.8468 6.06439C14.7927 4.92499 14.5318 3.91571 13.6948 3.08417C12.8609 2.25262 11.8489 1.99237 10.7063 1.93524C9.52877 1.86859 5.9993 1.86859 4.82175 1.93524C3.68239 1.9892 2.67034 2.24945 1.83332 3.08099C0.996304 3.91254 0.738515 4.92181 0.681229 6.06122C0.614395 7.23553 0.614395 10.7553 0.681229 11.9296C0.735333 13.069 0.996304 14.0783 1.83332 14.9098C2.67034 15.7414 3.67921 16.0016 4.82175 16.0588C5.9993 16.1254 9.52877 16.1254 10.7063 16.0588C11.8489 16.0048 12.8609 15.7446 13.6948 14.9098C14.5286 14.0783 14.7896 13.069 14.8468 11.9296C14.9137 10.7553 14.9137 7.23871 14.8468 6.06439ZM13.3256 13.1896C13.0773 13.8117 12.5968 14.291 11.9698 14.5417C11.0309 14.913 8.80315 14.8273 7.76563 14.8273C6.72811 14.8273 4.49713 14.9098 3.56146 14.5417C2.93767 14.2941 2.4571 13.8149 2.20568 13.1896C1.83332 12.2534 1.91925 10.0317 1.91925 8.99701C1.91925 7.96234 1.8365 5.73749 2.20568 4.80438C2.45392 4.18231 2.93449 3.70306 3.56146 3.45233C4.50031 3.08099 6.72811 3.16669 7.76563 3.16669C8.80315 3.16669 11.0341 3.08417 11.9698 3.45233C12.5936 3.69989 13.0742 4.17914 13.3256 4.80438C13.6979 5.74066 13.612 7.96234 13.612 8.99701C13.612 10.0317 13.6979 12.2565 13.3256 13.1896Z" fill="white"/>
</g>
<defs>
<clipPath id="clip0">
<rect x="0.633545" y="0.875" width="14.2579" height="16.25" fill="white"/>
</clipPath>
</defs>
</svg>
