<svg width="13" height="13" viewBox="0 0 13 13" fill="none" xmlns="http://www.w3.org/2000/svg">
<path d="M8.9345 1.94458C7.8865 1.94458 6.991 2.69158 6.499 3.20658C6.007 2.69158 5.1135 1.94458 4.066 1.94458C2.2605 1.94458 1 3.20308 1 5.00458C1 6.98958 2.5655 8.27258 4.08 9.51358C4.795 10.1001 5.535 10.7061 6.1025 11.3781C6.198 11.4906 6.338 11.5556 6.485 11.5556H6.514C6.6615 11.5556 6.801 11.4901 6.896 11.3781C7.4645 10.7061 8.204 10.0996 8.9195 9.51358C10.4335 8.27308 12 6.99008 12 5.00458C12 3.20308 10.7395 1.94458 8.9345 1.94458Z" fill="white"/>
</svg>
