<svg width="20" height="20" viewBox="0 0 20 20" fill="none" xmlns="http://www.w3.org/2000/svg">
<path d="M15.9994 20C15.9994 11.2238 8.77625 4.00063 0 4.00063V0C10.97 0 20 9.03 20 20H15.9994ZM2.74063 14.5119C3.4689 14.5132 4.16697 14.8031 4.68194 15.3181C5.19691 15.833 5.4868 16.5311 5.48812 17.2594C5.48812 18.77 4.24813 20 2.73438 20C1.22375 20 0 18.7725 0 17.2594C0 15.7463 1.23063 14.5119 2.74063 14.5119ZM13.2588 20H9.36875C9.36875 14.86 5.14 10.6281 0 10.6281V6.74125C7.27188 6.74125 13.2588 12.7275 13.2588 20Z" fill="#E90255"/>
</svg>
