<svg width="13" height="14" viewBox="0 0 13 14" fill="none" xmlns="http://www.w3.org/2000/svg">
<g clip-path="url(#clip0)">
<path d="M10.52 13.25C10.52 7.76484 6.04229 3.25039 0.601807 3.25039V0.75C7.40221 0.75 13 6.39375 13 13.25H10.52ZM2.30075 9.81992C2.75221 9.82075 3.18495 10.0019 3.50419 10.3238C3.82342 10.6456 4.00313 11.0819 4.00395 11.5371C4.00395 12.4812 3.23526 13.25 2.29687 13.25C1.36042 13.25 0.601807 12.4828 0.601807 11.5371C0.601807 10.5914 1.36468 9.81992 2.30075 9.81992ZM8.82103 13.25H6.40958C6.40958 10.0375 3.78814 7.39258 0.601807 7.39258V4.96328C5.10971 4.96328 8.82103 8.70469 8.82103 13.25Z" fill="white"/>
</g>
<defs>
<clipPath id="clip0">
<rect x="0.601807" y="0.75" width="12.3982" height="12.5" fill="white"/>
</clipPath>
</defs>
</svg>
