<svg width="103" height="103" viewBox="0 0 103 103" fill="none" xmlns="http://www.w3.org/2000/svg">
<path d="M78.347 34.1909C76.9256 34.1909 75.535 34.3196 74.1806 34.5411C70.8022 23.4943 60.3374 15.45 47.9414 15.45C32.8055 15.45 20.5434 27.4392 20.5434 42.2249C20.5434 43.5433 20.6464 44.8411 20.8369 46.1183C20.1039 46.0275 19.3661 45.9811 18.6276 45.9792C8.33785 45.9792 0 54.1265 0 64.1845C0 74.2424 8.33785 82.4 18.6276 82.4H41.2V61.8H28.325L51.5 36.05L74.675 61.8H61.8V82.4H78.347C91.9584 82.4 103 71.6056 103 58.298C103 44.9801 91.9584 34.1909 78.347 34.1909Z" fill="white"/>
</svg>
