<svg width="93" height="128" viewBox="0 0 93 128" fill="none" xmlns="http://www.w3.org/2000/svg">
<path d="M92.7477 116.48V128H4.36766V118.82L56.7477 67.52C63.3477 61.04 67.7877 55.46 70.0677 50.78C72.4677 45.98 73.6677 41.18 73.6677 36.38C73.6677 28.94 71.0877 23.18 65.9277 19.1C60.8877 14.9 53.6277 12.8 44.1477 12.8C29.3877 12.8 17.9277 17.48 9.76766 26.84L0.587656 18.92C5.50766 13.16 11.7477 8.71999 19.3077 5.6C26.9877 2.48 35.6277 0.919995 45.2277 0.919995C58.0677 0.919995 68.2077 3.97999 75.6477 10.1C83.2077 16.1 86.9877 24.38 86.9877 34.94C86.9877 41.42 85.5477 47.66 82.6677 53.66C79.7877 59.66 74.3277 66.56 66.2877 74.36L23.4477 116.48H92.7477Z" fill="url(#paint0_linear)"/>
<defs>
<linearGradient id="paint0_linear" x1="48.5" y1="-27" x2="48.5" y2="153" gradientUnits="userSpaceOnUse">
<stop stop-color="#FFCF26"/>
<stop offset="1" stop-color="#936100" stop-opacity="0.6"/>
</linearGradient>
</defs>
</svg>
