<svg width="16" height="16" viewBox="0 0 16 16" fill="none" xmlns="http://www.w3.org/2000/svg">
<path d="M7.99992 1.33325C5.41992 1.33325 3.33325 3.41992 3.33325 5.99992C3.33325 9.49992 7.99992 14.6666 7.99992 14.6666C7.99992 14.6666 12.6666 9.49992 12.6666 5.99992C12.6666 3.41992 10.5799 1.33325 7.99992 1.33325ZM7.99992 7.66659C7.55789 7.66659 7.13397 7.49099 6.82141 7.17843C6.50885 6.86587 6.33325 6.44195 6.33325 5.99992C6.33325 5.55789 6.50885 5.13397 6.82141 4.82141C7.13397 4.50885 7.55789 4.33325 7.99992 4.33325C8.44195 4.33325 8.86587 4.50885 9.17843 4.82141C9.49099 5.13397 9.66659 5.55789 9.66659 5.99992C9.66659 6.44195 9.49099 6.86587 9.17843 7.17843C8.86587 7.49099 8.44195 7.66659 7.99992 7.66659Z" fill="white"/>
</svg>
