<svg width="16" height="16" viewBox="0 0 16 16" fill="none" xmlns="http://www.w3.org/2000/svg">
<path d="M14.8194 11.81L12.9865 13.6281C12.716 13.9056 12.3573 13.9996 12.0081 14C10.4636 13.9537 9.00364 13.195 7.80496 12.416C5.83738 10.9846 4.03205 9.20972 2.899 7.06485C2.46443 6.16543 1.95452 5.01784 2.00324 4.01393C2.00759 3.63628 2.10935 3.26564 2.37532 3.02221L4.20817 1.19029C4.58877 0.866553 4.95683 0.978483 5.20039 1.35557L6.67492 4.15168C6.83012 4.48293 6.74109 4.83785 6.50954 5.07455L5.83428 5.74946C5.79259 5.80656 5.76605 5.87156 5.76538 5.94231C6.02431 6.94463 6.80877 7.86846 7.50175 8.50424C8.19473 9.14003 8.93961 10.0014 9.9065 10.2053C10.026 10.2386 10.1724 10.2503 10.2579 10.1709L11.0434 9.37198C11.3142 9.16674 11.7052 9.06642 11.9943 9.23424H12.0081L14.6678 10.8045C15.0582 11.0492 15.0989 11.5222 14.8194 11.81Z" fill="white"/>
</svg>
